<?xml version="1.0" standalone="no"?>
<!DOCTYPE svg PUBLIC "-//W3C//DTD SVG 20010904//EN"
 "http://www.w3.org/TR/2001/REC-SVG-20010904/DTD/svg10.dtd">
<svg version="1.0" xmlns="http://www.w3.org/2000/svg"
 width="869.000000pt" height="239.000000pt" viewBox="0 0 869.000000 239.000000"
 preserveAspectRatio="xMidYMid meet">

<g transform="translate(0.000000,239.000000) scale(0.100000,-0.100000)"
fill="#000000" stroke="none">
<path d="M475 2000 l290 -290 474 -2 475 -3 -1 -470 -2 -470 294 -295 295
-295 0 1058 0 1057 -1057 0 -1058 0 290 -290z"/>
<path d="M140 1182 l0 -1052 1052 0 1053 0 -290 290 -290 290 -472 0 -473 0 0
473 0 472 -290 290 -290 290 0 -1053z"/>
<path d="M5175 1713 c-33 -9 -74 -43 -90 -73 -12 -23 -15 -76 -15 -267 0 -207
2 -243 18 -273 49 -97 218 -100 273 -5 10 17 20 56 24 88 l7 57 -56 0 -56 0 0
-43 c0 -24 -5 -48 -12 -55 -20 -20 -76 -15 -88 7 -6 12 -10 103 -10 225 0 193
1 207 20 226 24 24 38 25 68 4 17 -12 22 -25 22 -60 l0 -44 56 0 57 0 -7 57
c-12 100 -57 150 -141 158 -28 2 -59 1 -70 -2z"/>
<path d="M6647 1706 c-93 -35 -97 -47 -97 -338 0 -223 2 -246 20 -275 27 -45
73 -66 145 -67 72 -1 119 22 150 74 19 33 20 52 20 277 0 228 -1 243 -21 269
-11 15 -31 36 -45 46 -33 25 -123 32 -172 14z m114 -105 c24 -19 24 -21 24
-230 0 -238 -2 -246 -72 -244 -61 2 -63 11 -63 245 0 195 1 209 20 228 25 25
61 26 91 1z"/>
<path d="M3130 1706 c0 -8 -150 -648 -155 -663 -3 -9 11 -13 49 -13 l54 0 12
65 12 66 71 -3 71 -3 8 -40 c18 -90 14 -85 68 -85 28 0 50 2 50 4 0 5 -35 159
-123 531 l-32 140 -43 3 c-23 2 -42 1 -42 -2z m90 -433 c0 -21 -5 -23 -51 -23
-48 0 -51 1 -46 23 3 12 13 63 22 112 25 140 26 141 51 20 13 -60 23 -120 24
-132z"/>
<path d="M3430 1370 l0 -340 108 0 c124 0 164 14 194 71 16 30 18 60 18 269 0
204 -2 240 -18 270 -27 55 -68 70 -194 70 l-108 0 0 -340z m210 221 c6 -12 10
-101 10 -221 0 -120 -4 -209 -10 -221 -8 -15 -22 -19 -60 -19 l-50 0 0 240 0
240 50 0 c38 0 52 -4 60 -19z"/>
<path d="M3857 1383 c34 -181 63 -334 63 -340 0 -9 18 -13 54 -13 43 0 56 4
60 18 3 9 28 136 56 282 28 146 55 284 60 307 17 73 16 74 -42 71 l-53 -3 -36
-233 c-20 -128 -38 -235 -41 -237 -3 -3 -10 30 -16 72 -22 156 -52 349 -58
376 -5 25 -9 27 -58 27 l-53 0 64 -327z"/>
<path d="M4340 1706 c0 -8 -150 -648 -155 -663 -3 -9 11 -13 49 -13 l54 0 12
65 12 66 71 -3 71 -3 8 -40 c18 -90 14 -85 68 -85 28 0 50 3 50 8 -1 4 -36
156 -78 337 l-77 330 -43 3 c-23 2 -42 1 -42 -2z m90 -433 c0 -21 -5 -23 -50
-23 -27 0 -50 2 -50 4 0 7 40 210 47 236 4 18 12 -4 29 -85 13 -60 23 -120 24
-132z"/>
<path d="M4640 1370 l0 -340 45 0 45 0 2 211 3 210 76 -208 76 -208 42 -3 41
-3 0 340 0 341 -45 0 -45 0 -2 -221 -3 -220 -73 208 c-40 114 -75 214 -77 221
-3 7 -21 12 -45 12 l-40 0 0 -340z"/>
<path d="M5470 1370 l0 -340 145 0 145 0 0 50 0 50 -95 0 -95 0 0 95 0 95 85
0 85 0 0 50 0 50 -85 0 -85 0 0 95 0 95 95 0 95 0 0 50 0 50 -145 0 -145 0 0
-340z"/>
<path d="M5970 1370 l0 -340 108 0 c173 0 212 34 212 185 0 91 -11 120 -58
151 -31 21 -31 23 -12 29 39 12 60 63 60 143 0 85 -16 124 -63 152 -26 17 -51
20 -139 20 l-108 0 0 -340z m198 228 c7 -7 12 -39 12 -72 0 -73 -17 -96 -72
-96 l-38 0 0 90 0 90 43 0 c24 0 48 -5 55 -12z m-3 -283 c21 -20 25 -34 25
-85 0 -87 -9 -100 -70 -100 l-50 0 0 105 0 105 35 0 c25 0 44 -8 60 -25z"/>
<path d="M6360 1370 l0 -340 50 0 50 0 0 340 0 340 -50 0 -50 0 0 -340z"/>
<path d="M6980 1370 l0 -340 50 0 50 0 0 140 0 140 85 0 85 0 0 50 0 50 -85 0
-85 0 0 100 0 100 95 0 95 0 0 50 0 50 -145 0 -145 0 0 -340z"/>
<path d="M7320 1428 c0 -256 2 -287 19 -325 41 -89 184 -109 253 -36 42 45 48
88 48 376 l0 267 -55 0 -55 0 0 -280 0 -280 -24 -15 c-27 -18 -69 -7 -80 20
-3 9 -6 138 -6 286 l0 269 -50 0 -50 0 0 -282z"/>
<path d="M7720 1370 l0 -340 145 0 145 0 0 50 0 50 -95 0 -95 0 0 95 0 95 85
0 85 0 0 50 0 50 -85 0 -85 0 0 95 0 95 95 0 95 0 0 50 0 50 -145 0 -145 0 0
-340z"/>
<path d="M8080 1370 l0 -340 140 0 140 0 0 50 0 50 -90 0 -90 0 0 290 0 290
-50 0 -50 0 0 -340z"/>
<path d="M4033 749 c14 -8 17 -24 17 -87 0 -47 -5 -83 -12 -90 -9 -9 6 -12 70
-12 81 0 82 0 82 25 0 30 -16 33 -23 5 -4 -16 -14 -20 -46 -20 l-41 0 0 45 c0
38 3 45 20 45 10 0 24 -8 29 -17 8 -14 10 -10 10 22 -1 22 -3 32 -6 23 -3 -11
-14 -18 -29 -18 -21 0 -24 4 -24 40 0 39 1 40 35 40 22 0 38 -6 44 -17 9 -16
10 -16 11 5 0 21 -4 22 -77 22 -58 -1 -73 -3 -60 -11z"/>
<path d="M4223 749 c14 -8 17 -24 17 -89 0 -65 -3 -81 -17 -89 -15 -8 -10 -10
22 -11 30 0 36 3 27 12 -7 7 -12 41 -12 82 l0 70 58 -82 c31 -45 60 -82 65
-82 4 0 7 40 7 90 0 74 3 91 18 99 14 8 9 10 -22 11 -35 0 -38 -2 -22 -13 14
-10 16 -25 14 -77 l-3 -65 -54 78 c-48 68 -58 77 -85 77 -26 -1 -28 -2 -13
-11z"/>
<path d="M4453 749 c14 -8 17 -24 17 -89 0 -65 -3 -81 -17 -89 -13 -8 5 -10
70 -11 86 0 87 0 87 25 0 30 -16 33 -23 5 -4 -16 -14 -20 -46 -20 l-41 0 0 45
c0 39 3 45 20 45 11 0 23 -7 26 -15 10 -24 23 -7 18 22 -6 32 -14 43 -14 20 0
-11 -8 -17 -25 -17 -22 0 -25 4 -25 40 0 39 1 40 35 40 22 0 38 -6 44 -17 9
-16 10 -16 11 5 0 21 -4 22 -77 22 -58 -1 -73 -3 -60 -11z"/>
<path d="M4643 749 c14 -8 17 -24 17 -89 0 -65 -3 -81 -17 -89 -14 -8 -8 -10
27 -10 25 0 39 3 33 6 -7 2 -13 20 -13 39 0 40 20 45 43 10 25 -38 47 -56 68
-56 16 0 13 7 -21 42 l-40 42 20 21 c26 27 26 71 1 85 -27 14 -143 13 -118 -1z
m95 -15 c12 -8 22 -21 22 -29 0 -20 -28 -45 -51 -45 -16 0 -19 7 -19 45 0 49
10 56 48 29z"/>
<path d="M4883 748 c-12 -6 -29 -26 -39 -46 -31 -67 15 -142 88 -142 50 0 68
11 68 41 0 16 7 32 18 38 13 8 7 10 -28 10 -35 0 -41 -2 -27 -10 9 -5 17 -21
17 -33 0 -29 -37 -41 -74 -25 -51 23 -58 124 -12 154 30 20 81 10 94 -19 10
-20 11 -20 11 5 1 16 -6 29 -15 33 -24 9 -76 6 -101 -6z"/>
<path d="M5052 748 c26 -22 68 -105 68 -137 0 -18 -7 -34 -17 -40 -14 -8 -7
-10 32 -10 39 0 46 2 33 10 -11 6 -18 22 -18 40 0 32 42 115 68 137 13 10 10
12 -19 12 -23 0 -30 -3 -20 -9 11 -7 9 -16 -10 -50 -12 -22 -25 -41 -28 -41
-3 0 -16 18 -27 39 -15 28 -18 43 -11 50 8 8 0 11 -28 11 -33 0 -36 -2 -23
-12z"/>
<path d="M5333 749 c14 -8 17 -24 17 -87 0 -47 -5 -83 -12 -90 -9 -9 -3 -12
27 -12 30 0 36 3 27 12 -7 7 -12 29 -12 50 0 34 3 38 25 38 16 0 25 -6 25 -15
0 -8 5 -15 10 -15 6 0 10 17 10 38 -1 33 -2 35 -14 20 -7 -10 -23 -18 -35 -18
-18 0 -21 6 -21 40 0 39 1 40 35 40 22 0 38 -6 41 -15 9 -22 24 -18 24 5 0 18
-7 20 -82 20 -61 -1 -78 -3 -65 -11z"/>
<path d="M5538 744 c-17 -9 -31 -28 -39 -52 -30 -101 79 -175 152 -103 23 24
29 38 29 73 -1 46 -12 68 -47 86 -29 16 -62 14 -95 -4z m86 -15 c22 -17 26
-28 26 -70 0 -36 -5 -54 -20 -69 -23 -23 -29 -24 -63 -11 -50 19 -59 124 -14
156 28 20 39 19 71 -6z"/>
<path d="M5723 749 c14 -8 17 -24 17 -87 0 -47 -5 -83 -12 -90 -9 -9 -3 -12
28 -11 21 0 33 3 27 6 -18 7 -17 73 1 73 7 0 26 -18 41 -40 19 -28 35 -40 52
-40 23 0 23 1 -12 37 -39 40 -43 54 -20 73 22 18 19 67 -4 80 -27 14 -143 13
-118 -1z m95 -15 c12 -8 22 -21 22 -29 0 -20 -28 -45 -51 -45 -16 0 -19 7 -19
45 0 49 10 56 48 29z"/>
<path d="M6003 749 c14 -8 17 -24 17 -89 0 -65 -3 -81 -17 -89 -14 -8 -9 -10
27 -11 34 0 41 3 32 12 -7 7 -12 29 -12 50 0 34 3 38 25 38 16 0 25 -6 25 -15
0 -8 5 -15 10 -15 6 0 10 17 10 38 -1 33 -2 35 -14 20 -7 -10 -23 -18 -35 -18
-18 0 -21 6 -21 40 0 39 1 40 35 40 22 0 38 -6 41 -15 9 -22 24 -18 24 5 0 18
-7 20 -82 20 -61 -1 -78 -3 -65 -11z"/>
<path d="M6173 749 c14 -8 17 -24 17 -84 0 -65 3 -76 22 -89 33 -23 75 -20
103 9 21 20 25 34 25 88 0 36 5 68 12 75 9 9 4 12 -22 12 -26 0 -31 -3 -22
-12 18 -18 15 -133 -4 -152 -21 -21 -57 -20 -77 2 -24 27 -24 137 1 151 13 8
7 10 -28 10 -35 0 -41 -2 -27 -10z"/>
<path d="M6381 733 c0 -28 1 -28 11 -5 7 13 20 22 35 22 22 0 23 -3 23 -83 0
-51 -5 -88 -12 -95 -9 -9 -2 -12 33 -12 35 1 40 3 27 11 -15 8 -18 25 -18 94
0 82 1 85 23 85 15 0 28 -9 35 -22 10 -23 11 -23 11 5 l1 27 -85 0 -85 0 1
-27z"/>
<path d="M6583 749 c14 -8 17 -24 17 -84 0 -65 3 -76 22 -89 33 -23 75 -20
103 9 21 20 25 34 25 88 0 36 5 68 12 75 9 9 3 12 -27 12 -32 -1 -37 -3 -22
-11 23 -14 25 -130 1 -153 -20 -20 -58 -20 -78 0 -24 23 -22 139 2 153 13 8 7
10 -28 10 -35 0 -41 -2 -27 -10z"/>
<path d="M6803 749 c14 -8 17 -24 17 -87 0 -47 -5 -83 -12 -90 -9 -9 -3 -12
28 -11 21 0 33 3 27 6 -7 2 -13 20 -13 39 0 40 20 45 43 10 25 -38 47 -56 68
-56 17 0 15 5 -16 37 -39 40 -43 54 -20 73 22 18 19 67 -4 80 -27 14 -143 13
-118 -1z m95 -15 c12 -8 22 -21 22 -29 0 -20 -28 -45 -51 -45 -16 0 -19 7 -19
45 0 49 10 56 48 29z"/>
<path d="M7003 749 c14 -8 17 -24 17 -89 0 -65 -3 -81 -17 -89 -13 -8 5 -10
70 -11 86 0 87 0 87 25 0 30 -16 33 -23 5 -4 -16 -14 -20 -46 -20 l-41 0 0 45
c0 41 2 45 24 45 15 0 26 -7 29 -17 3 -10 5 -2 5 17 0 19 -2 29 -5 23 -2 -7
-16 -13 -29 -13 -21 0 -24 4 -24 40 0 39 1 40 35 40 22 0 38 -6 44 -17 9 -16
10 -16 11 5 0 21 -4 22 -77 22 -58 -1 -73 -3 -60 -11z"/>
</g>
</svg>
